<?xml version="1.0" encoding="UTF-8"?>
<svg width="358px" height="700px" viewBox="0 0 358 700" version="1.1" xmlns="http://www.w3.org/2000/svg" xmlns:xlink="http://www.w3.org/1999/xlink">
    <title>Group 3</title>
    <defs>
        <rect id="path-1" x="0" y="0" width="358" height="700"></rect>
        <linearGradient x1="50.0004325%" y1="100%" x2="50.0004325%" y2="-0.00293043733%" id="linearGradient-3">
            <stop stop-color="#808080" stop-opacity="0.25" offset="0%"></stop>
            <stop stop-color="#808080" stop-opacity="0.12" offset="54%"></stop>
            <stop stop-color="#808080" stop-opacity="0.1" offset="100%"></stop>
        </linearGradient>
    </defs>
    <g id="Page-1" stroke="none" stroke-width="1" fill="none" fill-rule="evenodd">
        <g id="Light">
            <g id="Group-3">
                <mask id="mask-2" fill="white">
                    <use xlink:href="#path-1"></use>
                </mask>
                <use id="Rectangle" fill="#FF9627" xlink:href="#path-1"></use>
                <g id="undraw_reading_list_4boi" mask="url(#mask-2)">
                    <g transform="translate(-127.000000, 92.000000)">
                        <g id="Group" opacity="0.1" stroke-width="1" fill="none" fill-rule="evenodd" transform="translate(194.000000, 0.000000)">
                            <path d="M213.304213,11.1382789 C206.95105,16.3661721 204.111533,24.651632 201.632914,32.5071217 C196.07645,50.1336301 190.880884,67.8784372 186.046215,85.741543 C178.998494,111.689911 172.597666,138.211573 159.693867,161.818991 C146.790069,185.426409 127.989337,204.993472 109.392887,224.328487 L42.4020856,293.94273 C21.7015331,315.461721 -0.381325967,340.297626 0.0136187845,370.190801 C0.354088398,396.125519 18.4398343,419.132344 40.5703591,432.522849 C62.700884,445.913353 88.5629558,451.393769 113.873467,456.662611 C126.72279,459.337982 140.362003,461.965579 152.687003,457.515727 C167.490622,452.178635 177.13953,437.880415 190.669793,429.833828 C214.945276,415.38546 245.703301,423.513947 272.900014,431.089614 C300.096727,438.665282 332.141727,444.411869 354.197348,426.762611 C386.201492,401.148665 372.405663,349.545401 386.698577,311.080119 C400.262887,274.573591 437.769019,253.580119 462.384972,223.441246 C517.377624,156.127003 493.33366,62.6255193 417.442983,24.8836795 C392.575083,12.5510386 368.061271,13.1857567 341.089268,11.2406528 C307.45768,8.82462908 242.291796,-12.7284866 213.304213,11.1382789 Z" id="Path" fill="#6C63FF" fill-rule="nonzero"></path>
                        </g>
                        <g id="Group" opacity="0.5" stroke-width="1" fill="none" fill-rule="evenodd" transform="translate(0.000000, 44.000000)">
                            <path d="M199.952218,356.094519 C199.952218,356.094519 87.1877133,299.046243 135.37884,171.622505 C183.569966,44.1987659 9.09215017,0 9.09215017,0 C9.09215017,0 -25.0853242,124.073176 39.1262799,206.697641 C103.337884,289.322105 128.109215,426.497278 199.952218,356.094519 Z" id="Path" fill="#6C63FF" fill-rule="nonzero"></path>
                            <path d="M9.09215017,0 C9.09215017,0 56.668942,82.412922 80.6757679,189.617278 C104.682594,296.821633 143.767918,385.287405 199.372014,354.074628" id="Path" stroke="#FFFFFF"></path>
                        </g>
                        <g id="Group" opacity="0.5" stroke-width="1" fill="none" fill-rule="evenodd" transform="translate(128.000000, 158.000000)">
                            <path d="M47.8992,263.165281 C47.8992,263.165281 2.9784,198.574439 62.5736,136.313036 C122.1688,74.0516327 40.9292,0.211147959 40.9292,0.211147959 C40.9292,0.211147959 -10.3088,64.3183929 1.9244,130.77551 C14.1576,197.232628 -9.1188,285.185969 47.8992,263.165281 Z" id="Path" fill="#6C63FF" fill-rule="nonzero"></path>
                            <path d="M40.936,0.211147959 C40.936,0.211147959 44.336,62.0025765 28.628,132.021964 C12.92,202.041352 10.1796,265.099668 48.1236,261.823469" id="Path" stroke="#FFFFFF"></path>
                        </g>
                        <g id="Group" opacity="0.1" stroke-width="1" fill="none" fill-rule="evenodd" transform="translate(42.000000, 498.000000)">
                            <path d="M0.483572311,25.0532813 C1.27363412,29.8994531 4.08652658,33.5901562 6.75639061,36.975 L38.5291347,77.1717187 C41.0832138,80.4070312 43.8279975,83.7714844 47.2606799,84.6482812 C54.432534,86.5446094 60.2013473,77.3552344 66.3311372,71.9789062 C88.1259456,52.8660937 117.909913,81.9635156 142.544858,70.8370313 C152.400198,66.3850781 160.382546,55.8091406 170.428591,52.2271875 C197.025068,42.7115625 219.562262,84.7502344 247.023721,86.89125 C256.041323,87.5709375 264.888653,83.8734375 273.504413,80.1963281 L330.974598,55.6460156 C334.965773,53.94 339.025056,52.2475781 343.234178,52.145625 C350.303869,52.0232813 356.889988,56.5635938 363.544215,59.8328906 C390.331397,73.0052344 420.074499,65.8957031 447.590445,55.9178906 C475.106391,45.9400781 502.819852,33.1007812 531.262077,35.2282031 C538.665501,35.7855469 548.445921,35.3165625 550.468752,25.6242187 C551.674277,19.8604687 535.40309,25.9028906 531.636675,22.7967187 C527.87026,19.6905469 536.833375,6.72890625 532.440358,6.17835937 C506.879135,2.98382812 480.834339,2.89546875 455.85204,10.9361719 C442.911372,15.0958594 430.181842,21.4305469 416.89382,22.72875 C403.040494,24.088125 389.262089,19.90125 375.660766,16.095 C341.218158,6.45703125 306.189815,-0.8971875 271.025253,0.598125 C208.52864,3.316875 146.971928,34.0795313 84.7886156,25.1620312 C66.3136286,22.4351245 48.4670405,16.47088 32.0724227,7.54453125 C23.6814215,3.02460937 24.0560198,19.03125 15.4947466,24.4211719 C12.7090977,26.1747656 5.41464771,9.82148437 3.23516687,12.9684375 C0.727010451,16.4636372 -0.264808221,20.8196473 0.483572311,25.0532813 Z" id="Path" fill="#6C63FF" fill-rule="nonzero"></path>
                        </g>
                        <path d="M579.102726,445.201078 L479.689365,314.998199 C471.925785,278.445956 460.270191,278.445956 460.270191,278.445956 C381.053045,267.784317 359.309567,254.075522 359.309567,254.075522 L341.58761,247.135913 L340.108509,246.263349 C340.040347,245.874785 339.96537,245.486222 339.897208,245.084024 C339.829047,244.681827 339.760886,244.150108 339.706357,243.679742 C359.061429,232.044093 373.028284,213.223474 378.558338,191.325914 C378.701477,190.753294 378.830984,190.16704 378.967307,189.587603 C382.771112,187.763748 385.982188,184.902048 388.230437,181.332332 C395.844062,168.850579 388.612141,153.048994 388.775728,138.508537 C388.87797,129.319349 392.047474,120.314218 391.686219,111.131848 C391.386309,103.442379 388.632589,96.0596714 385.626673,88.9564568 C384.168019,85.5002861 382.559411,81.9691295 379.764795,79.4127902 C372.355654,72.6845053 360.359252,75.568056 350.843925,72.2550403 C338.533981,67.9672073 332.80161,54.6060742 325.685562,43.8626324 C322.959108,39.7179544 317.99696,35.3415016 313.518758,37.6115308 C308.263516,40.2701237 309.688089,49.3706914 304.378318,51.9270306 C301.161101,53.474468 297.22819,51.5248333 294.931152,48.825339 C292.634113,46.1258448 291.318599,42.7378431 289.055641,40.0110813 C284.92254,35.2046687 278.48906,33.0485956 272.29476,34.3939518 C271.088931,34.5891321 269.975198,35.1591798 269.111624,36.023192 C267.414406,38.0000944 268.477723,40.9449972 268.593598,43.5217872 C268.99575,52.1997068 258.369392,57.0192584 249.590207,57.9395405 C240.811023,58.8598227 230.464126,58.9688931 225.208885,65.9562204 C222.427901,69.6577997 221.834897,74.4773513 219.960459,78.6901983 C215.611763,88.4588227 205.094464,93.8100929 195.851782,99.4204054 C186.6091,105.030718 177.093772,113.211004 177.175566,123.872642 C177.25736,134.097999 186.281925,142.380539 187.870085,152.503642 C188.715286,157.868546 187.399772,163.41069 188.449457,168.748326 C190.378424,178.537401 199.52568,185.108897 207.964058,190.664674 C208.536613,191.039604 209.115985,191.414534 209.708989,191.769013 C209.858944,192.368901 210.008899,192.961971 210.172486,193.555042 C216.723516,216.631155 232.631349,235.912552 254.041145,246.726898 C254.177467,247.299518 254.306974,247.878955 254.436481,248.472026 C254.838633,250.298956 255.21352,252.200873 255.547511,254.150508 L255.288498,254.218677 L255.288498,254.027803 L157.102042,279.066294 C156.510986,278.853564 155.880152,278.77441 155.254869,278.834519 C151.233348,278.507308 138.657575,282.842859 123.982432,341.638662 L61.0831178,452.81556 C61.0831178,452.81556 24.5827033,487.847633 52.5424979,517.576154 C66.7950407,532.7165 82.8674922,536.377178 95.1978843,536.329459 C102.358462,536.431193 109.477503,535.225301 116.205219,532.771035 C116.205219,532.771035 115.700825,531.993908 114.923785,530.616893 L123.239473,531.632612 C139.598202,549.820114 167.46257,543.432674 167.46257,543.432674 C167.46257,543.432674 207.098408,542.982758 208.557061,522.252551 L279.792511,544.107547 L280.078789,548 L317.485749,548 L317.424404,545.518647 L396.123524,521.809452 C402.258047,533.152782 417.253549,538.763094 417.253549,538.763094 C417.253549,538.763094 463.439694,540.705912 477.958067,532.293852 C484.058481,528.713624 490.703309,526.15533 497.629439,524.720271 L498.031591,524.679369 L497.936165,524.774806 L586.85949,515.231139 C627.251919,480.226334 579.102726,445.201078 579.102726,445.201078 Z M131.507447,476.163459 L129.551216,475.031852 C133.046656,473.696419 136.640465,472.634337 140.300264,471.855175 L157.59962,450.497813 L160.591904,471.562048 C150.667027,469.272773 140.241202,470.922228 131.507447,476.163459 L131.507447,476.163459 Z M466.091172,475.993036 C459.650599,471.126887 451.771184,468.548098 443.700161,468.664864 L444.381775,416.815487 C450.877554,420.966982 456.330463,425.547942 457.945888,429.965296 C462.608126,442.917415 485.128643,463.470382 485.128643,463.470382 L473.432152,473.082218 L473.432152,473.082218 L471.612243,474.57512 C471.121481,474.691007 470.630719,474.806895 470.139957,474.936416 L466.091172,475.993036 Z" id="Shape" fill="url(#linearGradient-3)" fill-rule="nonzero"></path>
                        <polygon id="Path" fill="#EFB7B9" fill-rule="nonzero" points="113.19465 532.740458 131.389301 535 142 483.050891 121.530164 471 95 499.61408"></polygon>
                        <polygon id="Path" fill="#000000" fill-rule="nonzero" opacity="0.03" points="113.19465 532.740458 131.389301 535 142 483.050891 121.530164 471 95 499.61408"></polygon>
                        <path d="M357,277.067875 L313.053975,316.449304 C313.053975,316.449304 228.18727,335.382421 249.405654,308.873327 C261.425079,293.857878 259.827042,271.06852 256.180239,254.128363 C254.548986,246.446364 252.283023,238.912817 249.405654,231.605188 C249.405654,231.605188 358.536574,165.748791 343.382537,215.736588 C338.888911,230.560932 338.260623,241.993149 339.592321,250.729411 C342.774737,271.450731 357,277.067875 357,277.067875 Z" id="Path" fill="#EFB7B9" fill-rule="nonzero"></path>
                        <path d="M343.562169,215.608516 C339.087723,230.333518 338.462116,241.689125 339.78813,250.366843 C314.610228,265.90902 283.113727,267.194685 256.74567,253.756576 C255.121379,246.126057 252.865088,238.642993 250,231.384335 C250,231.384335 358.651525,165.9557 343.562169,215.608516 Z" id="Path" fill="#000000" fill-rule="nonzero" opacity="0.1"></path>
                        <path d="M379,176.500235 C379,223.163744 341.174685,260.993744 294.51115,261 C247.847614,261.006256 210.012519,223.186399 210,176.522892 C209.987488,129.859385 247.802291,92.0192381 294.465823,92 C316.902395,91.9261283 338.441957,100.803793 354.310288,116.665732 C370.178618,132.527671 379.064952,154.063648 379,176.500235 L379,176.500235 Z" id="Path" fill="#EFB7B9" fill-rule="nonzero"></path>
                        <polygon id="Path" fill="#E1E7EF" fill-rule="nonzero" points="237 287.11096 237 442 386 429.912594 361.043966 272 295.242108 311.285772"></polygon>
                        <path d="M318,382 L301.217722,335.195812 L301.907499,335.195812 C319.510612,316.321728 311.854086,305 311.854086,305 L287.422179,305 C271.867704,315.886277 282.662717,329.99081 286.325433,334.052752 L279,382 L318,382 Z" id="Path" fill="#000000" fill-rule="nonzero" opacity="0.1"></path>
                        <path d="M318,380 L301.217722,333.195812 L301.907499,333.195812 C319.510612,314.321728 311.854086,303 311.854086,303 L287.422179,303 C271.867704,313.886277 282.662717,327.99081 286.325433,332.052752 L279,380 L318,380 Z" id="Path" fill="#444053" fill-rule="nonzero"></path>
                        <path d="M339.911577,253 C339.911577,253 335.153086,275.049846 302,304.460968 C302,304.460968 312.196766,307.859526 313.692292,335.007209 L326.139145,352 C326.139145,352 335.941636,316.553038 353.289734,304.488157 C370.637832,292.423275 353.289734,260.748713 353.289734,260.748713 L339.911577,253 Z" id="Path" fill="#000000" fill-rule="nonzero" opacity="0.1"></path>
                        <path d="M339.911577,252 C339.911577,252 335.153086,274.049846 302,303.460968 C302,303.460968 312.196766,306.859526 313.692292,334.007209 L326.139145,351 C326.139145,351 335.941636,315.553038 353.289734,303.488157 C370.637832,291.423275 353.289734,259.748713 353.289734,259.748713 L339.911577,252 Z" id="Path" fill="#E1E7EF" fill-rule="nonzero"></path>
                        <path d="M295,304.431509 C295,304.431509 280.589195,315.76058 279.806894,333.88029 C279.024593,352 271.434902,352 271.434902,352 C271.434902,352 252.398914,293.871317 246.312065,288.584418 C240.225215,283.297518 257.291726,261 257.291726,261 C257.291726,261 266.864618,292.35397 295,304.431509 Z" id="Path" fill="#000000" fill-rule="nonzero" opacity="0.1"></path>
                        <path d="M295,303.428571 C295,303.428571 280.601662,314.748299 279.820038,332.884354 C279.038414,351.020408 271.455289,351 271.455289,351 C271.455289,351 252.428914,292.857143 246.319904,287.578231 C240.210895,282.29932 257.290067,260 257.290067,260 C257.290067,260 266.888959,291.346939 295,303.428571 Z" id="Path" fill="#E1E7EF" fill-rule="nonzero"></path>
                        <path d="M339,252 L357.893443,259.581556 C357.893443,259.581556 379.054916,273.242017 456.133897,283.835705 C456.133897,283.835705 467.467239,283.835705 475.02734,320.213513 L571.742153,449.803477 C571.742153,449.803477 618.594349,484.637653 579.302254,519.52647 L492.803795,529 C492.803795,529 542.680033,481.256688 467.113072,479.740377 L481.075422,467.98555 C481.075422,467.98555 459.157938,447.494859 454.628688,434.640365 C450.099438,421.785871 413.082184,407.360424 413.082184,407.360424 L417.618245,516.487018 L349.577331,527.087535 L339.769632,324.024781 C339.297614,314.447265 339.845586,304.846578 341.404249,295.385624 C343.965148,279.983455 346.669076,255.585871 339,252 Z" id="Path" fill="#000000" fill-rule="nonzero" opacity="0.1"></path>
                        <path d="M340,252 L358.893443,259.581556 C358.893443,259.581556 380.054916,273.242017 457.133897,283.835705 C457.133897,283.835705 468.467239,283.835705 476.02734,320.213513 L572.742153,449.803477 C572.742153,449.803477 619.594349,484.637653 580.302254,519.52647 L493.803795,529 C493.803795,529 543.680033,481.256688 468.113072,479.740377 L482.095854,467.992381 C482.095854,467.992381 460.178371,447.501689 455.649121,434.647195 C451.119871,421.792701 414.102617,407.367254 414.102617,407.367254 L418.638678,516.493848 L350.550088,527.087535 L340.742388,324.024781 C340.27037,314.447265 340.818342,304.846578 342.377005,295.385624 C344.965148,279.983455 347.669076,255.585871 340,252 Z" id="Path" fill="#67647E" fill-rule="nonzero"></path>
                        <path d="M257.591098,260 L161.57197,284.958596 C161.57197,284.958596 147.207601,275.896978 129.81772,346.912557 L68.5783539,457.204225 C68.5783539,457.204225 33.0422134,491.925676 60.2650094,521.411677 C87.4878054,550.897678 121.524818,536.471255 121.524818,536.471255 C121.524818,536.471255 90.5269461,488.133549 144.965724,476.042314 L165.408374,450.362057 L257.645612,460.935079 L255.321964,327.985963 L257.904552,312.490664 C260.698483,295.742448 260.698483,278.647684 257.904552,261.899468 L257.591098,260 Z" id="Path" fill="#000000" fill-rule="nonzero" opacity="0.1"></path>
                        <path d="M256.611414,260 L160.587174,284.962255 C160.587174,284.962255 146.222041,275.899309 128.831234,346.925301 L67.588608,457.23314 C67.588608,457.23314 32.0233176,491.959681 59.2816356,521.402342 C86.5399536,550.845002 120.524262,536.511792 120.524262,536.511792 C120.524262,536.511792 89.5247394,488.166998 143.966415,476.073991 L164.410153,450.389968 L256.652301,460.964541 L254.342159,327.995931 L256.904441,312.49836 C259.69852,295.747688 259.69852,278.650418 256.904441,261.899746 L256.611414,260 Z" id="Path" fill="#67647E" fill-rule="nonzero"></path>
                        <polygon id="Path" fill="#E4E6ED" fill-rule="nonzero" points="162.086491 333 153 339.869223 290 375 290 361.254671"></polygon>
                        <polygon id="Path" fill="#E4E6ED" fill-rule="nonzero" points="426.925283 331 436 337.830769 290 375 290 361.345299"></polygon>
                        <polygon id="Path" fill="#75C0FF" fill-rule="nonzero" points="145 334 271.936057 363.489745 281 548 169.93095 513.214777"></polygon>
                        <polygon id="Path" fill="#75C0FF" fill-rule="nonzero" points="442 334 307 364.964107 314.53814 550 439.736519 511.480352"></polygon>
                        <path d="M268,363 C268,363 290.163193,376.609382 313.463833,363 L318,551 L281.6085,551 L268,363 Z" id="Path" fill="#5C88AD" fill-rule="nonzero"></path>
                        <path d="M165,331 L165,336.252366 L290,361 C290,361 226.36314,337.746282 165,331 Z" id="Path" fill="#D8D9E5" fill-rule="nonzero"></path>
                        <path d="M425,328 L425,333.252151 L290,361 C290,361 363.556203,334.752765 425,328 Z" id="Path" fill="#D8D9E5" fill-rule="nonzero"></path>
                        <path d="M466.719158,478.234162 L462.766505,479.300203 C462.766505,479.300203 437.023061,456.749347 404.207167,490.91731 C371.391273,525.085272 415.129869,541.807073 415.129869,541.807073 C415.129869,541.807073 460.186017,543.74098 474.337743,535.362996 C480.428234,531.707135 487.098498,529.12092 494.060048,527.716206 C498.316749,526.880688 502.19052,524.692598 505.10563,521.477136 L505.10563,521.477136 C510.473162,515.593256 512.896893,507.5964 511.700212,499.718977 L511.700212,499.718977 C510.135698,489.283477 502.510148,480.784755 492.312415,478.111157 L492.312415,478.111157 C483.915466,475.926258 475.094761,475.968652 466.719158,478.234162 Z" id="Path" fill="#EFB7B9" fill-rule="nonzero"></path>
                        <path d="M132.677307,483.046567 C132.677307,483.046567 162.809531,455.999929 199.724561,501.079917 C236.639591,546.159905 171.092838,546.931892 171.092838,546.931892 C171.092838,546.931892 135.65794,555.173194 122.126276,525.87154 C108.594613,496.569887 132.677307,483.046567 132.677307,483.046567 Z" id="Path" fill="#EFB7B9" fill-rule="nonzero"></path>
                        <path d="M470,476.726436 C470,476.726436 504.924895,487.07876 497.437604,528 L518.545536,525.662822 L523,504.855062 L513.989526,475.874053 L496.713246,469 L470,476.726436 Z" id="Path" fill="#000000" fill-rule="nonzero" opacity="0.1"></path>
                        <path d="M470,476.726436 C470,476.726436 504.924895,487.07876 497.437604,528 L518.545536,525.662822 L523,504.855062 L513.989526,475.874053 L496.713246,469 L470,476.726436 Z" id="Path" fill="#67647E" fill-rule="nonzero"></path>
                        <path d="M378.993201,177.113785 C379,183.923185 378.191274,190.708564 376.586343,197.323425 C371.284931,199.860125 365.349842,200.737709 359.547967,199.842784 C349.553389,198.302415 340.728244,192.312092 333.419284,185.281163 C326.110323,178.250235 319.977596,170.069165 312.926999,162.757547 C306.535908,156.130538 298.64903,149.934832 289.483933,149.667835 C281.161917,149.421376 273.580996,154.104097 265.558137,156.322228 C257.154532,158.649897 240.22494,152.296731 236.125124,159.471427 C233.718266,163.688615 234.568145,172.965058 233.147147,177.955853 C231.60199,183.407378 229.427315,188.657661 226.667669,193.599155 C224.627959,197.207042 221.629586,201.034002 217.516171,201 C215.911712,200.918776 214.355835,200.418583 213.001613,199.548402 C204.316552,167.601348 214.833571,133.482843 239.956949,112.101967 C265.080328,90.7210906 300.243081,85.9645077 330.079815,99.9107462 C359.91655,113.856985 379.003475,143.970865 379,177.093247 L378.993201,177.113785 Z" id="Path" fill="#000000" fill-rule="nonzero" opacity="0.1"></path>
                        <path d="M265.849969,154.592387 C273.901325,152.389694 281.530002,147.739564 289.840419,147.984307 C299.030282,148.249446 306.94529,154.402031 313.346834,160.982918 C320.409666,168.236849 326.558966,176.360981 333.894495,183.349773 C341.230023,190.338566 350.072198,196.266802 360.093785,197.810047 C370.115371,199.353292 381.398177,195.593757 386.599858,186.932549 C394.010378,174.572992 386.974815,158.916193 387.131616,144.517105 C387.233877,135.413999 390.315344,126.49445 389.967656,117.398142 C389.674508,109.783893 386.995268,102.441582 384.0706,95.4323944 C382.645763,92.0331762 381.084577,88.5115862 378.357615,85.9893663 C371.137982,79.3268987 359.459766,82.1822419 350.188094,78.8985972 C338.203095,74.6495745 332.612822,61.4130189 325.686338,50.773466 C323.013915,46.6944042 318.187192,42.3366065 313.837687,44.5800905 C308.717816,47.2178838 310.108566,56.2326104 304.934155,58.7616287 C301.798149,60.2912769 297.966767,58.360521 295.730658,55.6887355 C293.494549,53.01695 292.206059,49.6585225 290.010854,46.9595432 C286.028314,42.2011273 279.717815,40.0536617 273.649081,41.3916239 C272.469672,41.5863125 271.383147,42.1506858 270.547161,43.0028533 C268.897349,44.960803 269.926777,47.8773321 270.042673,50.4335442 C270.438083,59.0267678 260.109713,63.7992701 251.533417,64.7102605 C242.957121,65.621251 232.901447,65.730026 227.788393,72.6576326 C225.061431,76.3219898 224.502403,81.0944921 222.675339,85.268732 C218.434912,94.9497054 208.195169,100.225292 199.189376,105.806808 C190.183583,111.388324 180.918729,119.471665 181,130.029637 C181.082347,140.179702 189.863165,148.385415 191.417534,158.399512 C192.235622,163.715889 190.960768,169.209026 191.983378,174.491411 C193.858165,184.185981 202.768514,190.692084 210.990305,196.198818 C213.035527,197.558505 215.217097,198.979378 217.671363,199 C221.761806,199.033766 224.822821,195.23344 226.847591,191.650664 C229.6143,186.743369 231.794831,181.529675 233.344579,176.116237 C234.769416,171.14658 233.917241,161.934699 236.330602,157.760459 C240.448315,150.594907 257.423655,156.897057 265.849969,154.592387 Z" id="Path" fill="#585268" fill-rule="nonzero"></path>
                    </g>
                </g>
            </g>
        </g>
    </g>
</svg>